<?xml version="1.0" standalone="no"?>
<!DOCTYPE svg PUBLIC "-//W3C//DTD SVG 20010904//EN"
 "http://www.w3.org/TR/2001/REC-SVG-20010904/DTD/svg10.dtd">
<svg version="1.0" xmlns="http://www.w3.org/2000/svg"
viewBox="0 0 5600.000000 5600.000000"
 preserveAspectRatio="xMidYMid meet">

<g transform="translate(0.000000,5600.000000) scale(0.100000,-0.100000)"
fill="#000000" stroke="none">
<path d="M19045 55804 c-55 -2 -210 -8 -345 -14 -3881 -172 -7597 -1506
-10700 -3840 -1462 -1100 -2740 -2379 -3839 -3840 -1362 -1810 -2394 -3846
-3045 -6005 -411 -1366 -674 -2811 -771 -4240 -33 -498 -39 -697 -39 -1325 0
-628 6 -827 39 -1325 252 -3715 1574 -7266 3816 -10245 908 -1208 1931 -2282
3095 -3251 3112 -2592 6949 -4129 10989 -4403 496 -34 697 -40 1325 -40 628 0
829 6 1325 40 2904 197 5703 1043 8227 2486 1237 706 2420 1571 3473 2537 61
55 113 101 116 101 5 0 20873 -18169 21181 -18442 l67 -59 829 953 830 953
-21 22 c-12 12 -4774 4160 -10582 9218 -5808 5058 -10560 9200 -10560 9205 0
5 75 103 166 217 688 862 1348 1848 1848 2765 38 70 45 78 72 78 29 0 29 1 29
54 0 50 9 72 102 248 114 218 287 570 408 833 979 2129 1556 4393 1714 6730
34 496 40 697 40 1325 0 628 -6 829 -40 1325 -194 2860 -1017 5619 -2422 8115
-1144 2033 -2671 3867 -4463 5361 -2001 1668 -4301 2908 -6774 3653 -1509 454
-2993 707 -4670 796 -188 10 -1228 20 -1420 14z m1065 -2524 c1251 -43 2385
-202 3572 -500 3517 -883 6682 -2923 8969 -5780 1223 -1527 2151 -3221 2785
-5080 46 -134 82 -245 81 -246 -1 -1 -272 -124 -602 -275 -330 -150 -602 -274
-604 -275 -6 -5 20 -104 29 -109 4 -3 279 119 611 270 331 151 603 274 604
273 6 -7 150 -505 195 -673 88 -324 212 -862 255 -1100 9 -49 18 -97 21 -105
3 -13 -117 -63 -567 -235 -570 -220 -570 -220 -565 -246 3 -15 11 -41 18 -57
l13 -31 558 215 c308 119 561 213 565 210 8 -9 57 -300 101 -611 49 -342 84
-650 110 -980 11 -137 22 -273 25 -302 l4 -52 -66 -20 c-37 -11 -1293 -409
-2792 -885 l-2725 -864 -28 -67 c-16 -37 -27 -68 -25 -70 2 -2 1270 399 2818
889 2444 775 2816 891 2822 876 15 -39 31 -780 24 -1150 -6 -347 -20 -718 -28
-725 -2 -2 -1431 -365 -3177 -808 l-3174 -804 -25 -62 c-13 -34 -23 -64 -20
-66 2 -2 1439 359 3194 804 l3189 808 3 -29 c4 -39 -33 -479 -64 -758 -30
-275 -103 -790 -114 -810 -6 -10 -963 -206 -3377 -692 -1852 -372 -3375 -678
-3383 -680 -16 -3 -67 -114 -57 -124 4 -4 1533 300 3398 675 1865 375 3393
680 3395 678 15 -14 -236 -1223 -257 -1241 -2 -2 -1565 -252 -3474 -555 -1908
-304 -3473 -555 -3477 -559 -4 -4 -19 -33 -33 -65 l-26 -59 38 6 c203 34 6938
1104 6939 1103 7 -9 -202 -732 -283 -977 l-28 -85 -3493 -426 c-1921 -234
-3497 -430 -3502 -435 -5 -5 -18 -33 -29 -61 -15 -39 -17 -53 -8 -53 7 0 1580
191 3496 425 1917 234 3486 423 3488 421 15 -15 -309 -864 -478 -1253 l-44
-102 -55 -6 c-30 -3 -1565 -120 -3410 -260 -1845 -140 -3375 -258 -3399 -262
-41 -8 -44 -10 -67 -67 l-24 -59 53 6 c178 19 6827 520 6833 514 9 -8 -174
-398 -334 -712 -121 -236 -130 -250 -158 -253 -28 -2 -6639 -272 -6674 -272
-12 0 -24 -17 -39 -56 -12 -32 -19 -59 -17 -61 2 -3 1506 57 3342 131 1835 75
3339 134 3341 132 10 -10 -303 -552 -525 -908 l-117 -188 -13120 1 -13120 2
737 30 c406 17 738 34 738 38 0 4 -44 29 -97 56 l-98 49 -150 -7 c-287 -13
-346 -8 -118 10 117 9 214 19 217 22 2 2 -38 26 -89 53 l-93 48 -869 -66
c-477 -37 -879 -66 -893 -65 -18 1 1213 155 1600 201 19 2 -19 26 -153 97
l-179 93 -229 -37 c-126 -20 -234 -35 -240 -33 -6 2 79 21 188 42 109 22 207
42 217 46 16 5 4 15 -60 49 l-79 42 -703 -142 c-387 -77 -705 -139 -707 -137
-2 2 288 77 645 168 357 91 646 168 642 171 -4 4 -36 23 -72 43 l-65 35 -434
-109 c-239 -60 -436 -108 -438 -107 -1 2 175 59 391 128 217 68 392 127 389
132 -7 11 -120 67 -137 67 -8 0 -158 -45 -333 -101 l-318 -100 -205 -202
c-113 -111 -266 -262 -341 -336 l-136 -133 -316 176 c-289 162 -318 175 -343
166 -21 -8 -30 -8 -40 2 -6 7 -63 101 -126 208 -1038 1767 -1744 3716 -2072
5720 -498 3043 -165 6134 966 8964 1519 3801 4409 6942 8073 8773 2482 1241
5262 1848 8025 1753z m-12637 -25327 c-7 -2 -19 -2 -25 0 -7 3 -2 5 12 5 14 0
19 -2 13 -5z m-56 -9 c-3 -3 -12 -4 -19 -1 -8 3 -5 6 6 6 11 1 17 -2 13 -5z
m-1080 -90 c-3 -3 -12 -4 -19 -1 -8 3 -5 6 6 6 11 1 17 -2 13 -5z m321 -221
c-10 -2 -26 -2 -35 0 -10 3 -2 5 17 5 19 0 27 -2 18 -5z m1510 -10 c-10 -2
-26 -2 -35 0 -10 3 -2 5 17 5 19 0 27 -2 18 -5z m25402 -279 c0 -8 -214 -321
-359 -524 -2109 -2957 -5160 -5178 -8591 -6254 -3579 -1123 -7434 -1023
-10925 284 -2965 1109 -5592 3074 -7506 5615 -209 277 -619 860 -619 879 0 3
6300 6 14000 6 7700 0 14000 -3 14000 -6z"/>
<path d="M32690 38380 c-597 -231 -1091 -423 -1098 -427 -12 -7 -76 -143 -70
-148 4 -3 2428 930 2447 942 10 6 -9 15 -66 31 -44 12 -91 22 -104 21 -13 0
-512 -189 -1109 -419z"/>
<path d="M25562 37130 c-1564 -714 -2845 -1300 -2848 -1303 -6 -5 89 -77 102
-77 8 0 5554 2529 5563 2536 3 3 30 145 27 143 -1 0 -1280 -584 -2844 -1299z"/>
<path d="M25755 35710 c-1281 -495 -2336 -901 -2343 -904 -18 -8 38 -108 58
-103 16 4 4516 1737 4574 1761 29 12 34 20 40 62 4 27 9 57 12 67 3 9 2 17 -3
16 -4 -1 -1056 -405 -2338 -899z"/>
<path d="M13953 31832 c-7470 -3410 -8600 -3929 -8585 -3940 21 -16 510 -288
534 -297 14 -6 84 57 298 266 154 149 279 274 277 275 -2 2 -39 -7 -82 -21
-44 -13 -81 -23 -82 -21 -2 2 45 21 104 44 106 41 110 43 208 142 55 55 97
100 94 100 -3 0 -34 -11 -68 -26 -35 -14 -65 -23 -67 -21 -2 2 38 21 88 43 86
36 101 47 214 157 116 113 121 116 138 98 9 -10 33 -26 54 -35 l37 -17 7615
3476 c4188 1912 7635 3486 7660 3498 33 16 59 42 98 97 51 73 76 111 70 109
-2 0 -3874 -1767 -8605 -3927z"/>
<path d="M25920 34306 c-1026 -326 -1874 -595 -1883 -599 -15 -6 -14 -11 12
-54 19 -33 34 -47 47 -46 10 1 845 264 1856 584 l1836 582 7 46 c3 25 8 54 11
64 3 10 0 17 -8 16 -7 0 -852 -267 -1878 -593z"/>
<path d="M22358 34402 l-507 -197 -56 -79 c-30 -44 -53 -81 -51 -83 4 -4 1178
446 1189 456 10 10 -41 101 -56 100 -7 0 -240 -89 -519 -197z"/>
<path d="M16913 32306 c-2415 -930 -4394 -1694 -4398 -1697 -3 -4 28 -20 70
-37 l76 -31 4222 1626 c2322 894 4245 1634 4272 1644 44 17 57 30 108 104 32
47 54 85 50 84 -4 -1 -1984 -762 -4400 -1693z"/>
<path d="M22117 33100 c-742 -235 -1349 -429 -1351 -431 -39 -51 -97 -141 -93
-145 3 -4 2709 847 2864 901 16 5 -38 105 -57 104 -8 0 -622 -193 -1363 -429z"/>
<path d="M26150 33004 c-767 -194 -1423 -360 -1457 -369 l-61 -17 31 -53 c16
-29 35 -52 41 -50 6 2 628 160 1381 350 754 191 1386 351 1406 356 35 9 37 11
46 72 6 34 10 63 9 63 0 1 -629 -157 -1396 -352z"/>
<path d="M16758 31402 c-1919 -609 -3488 -1110 -3488 -1113 0 -4 35 -21 77
-38 l78 -32 3365 1067 c2968 940 3367 1069 3385 1092 62 81 95 132 83 131 -7
0 -1582 -499 -3500 -1107z"/>
<path d="M21973 31946 l-2092 -531 -51 -72 c-28 -40 -48 -73 -46 -73 11 0
4351 1101 4354 1105 7 7 -51 105 -62 104 -6 -1 -952 -240 -2103 -533z"/>
<path d="M26240 31857 c-575 -116 -1047 -212 -1049 -214 -9 -6 48 -98 63 -101
11 -2 1900 372 2033 403 16 4 23 15 28 47 3 24 9 51 11 61 4 13 0 17 -18 16
-13 -1 -493 -96 -1068 -212z"/>
<path d="M21930 30990 c-1471 -296 -2689 -541 -2706 -545 -25 -4 -42 -20 -78
-72 -25 -37 -44 -68 -43 -70 4 -4 5568 1115 5574 1121 7 7 -51 106 -62 105 -5
0 -1214 -243 -2685 -539z"/>
<path d="M16795 30634 c-1419 -360 -2611 -662 -2649 -672 l-69 -18 90 -38 90
-37 2524 639 2524 639 53 72 c40 54 49 71 35 70 -10 0 -1179 -295 -2598 -655z"/>
<path d="M26400 30965 c-613 -98 -754 -124 -752 -135 7 -31 53 -99 65 -95 6 2
329 54 717 116 388 61 708 116 711 121 7 12 22 109 17 112 -2 1 -343 -52 -758
-119z"/>
<path d="M21870 30245 c-1735 -277 -3158 -504 -3162 -504 -16 -2 -99 -126 -86
-129 14 -3 6489 1026 6495 1032 3 2 -8 27 -24 55 -20 36 -34 50 -48 50 -11 0
-1440 -227 -3175 -504z"/>
<path d="M12130 30464 c-76 -31 -97 -46 -195 -140 l-110 -104 55 21 c228 87
495 191 503 196 12 7 -118 63 -146 63 -12 -1 -60 -17 -107 -36z"/>
<path d="M16843 29967 c-1041 -210 -1889 -384 -1885 -388 4 -4 44 -24 90 -43
l82 -35 1738 349 c955 192 1746 352 1757 354 11 3 39 31 61 63 44 63 57 83 52
82 -2 0 -855 -172 -1895 -382z"/>
<path d="M9480 29445 c-1235 -476 -2260 -871 -2279 -879 l-34 -13 67 -38 66
-37 2098 807 2097 807 73 67 c41 36 95 85 120 108 26 23 45 42 42 42 -3 0
-1015 -389 -2250 -864z"/>
<path d="M26770 30215 c-96 -13 -298 -38 -447 -56 -166 -20 -273 -37 -273 -43
0 -6 13 -32 29 -57 l29 -45 343 42 c189 23 390 47 446 54 l102 12 6 42 c4 22
9 49 11 59 7 22 -19 22 -246 -8z"/>
<path d="M12072 29916 c-991 -315 -882 -272 -1039 -417 l-62 -57 42 13 c23 8
506 161 1072 340 567 179 1035 327 1040 329 10 3 -100 57 -141 69 -11 4 -388
-111 -912 -277z"/>
<path d="M21850 29614 c-1950 -238 -3545 -433 -3546 -434 -6 -2 -85 -122 -83
-125 4 -3 7248 879 7283 887 12 2 9 13 -15 56 -27 46 -34 52 -62 51 -18 -1
-1627 -196 -3577 -435z"/>
<path d="M12138 29455 c-872 -222 -1593 -407 -1601 -411 -26 -16 -182 -166
-167 -161 8 2 813 206 1787 453 975 247 1773 452 1773 455 0 11 -154 69 -180
68 -14 -1 -739 -182 -1612 -404z"/>
<path d="M16978 29467 c-692 -111 -1258 -204 -1258 -208 0 -9 173 -79 196 -79
21 0 2203 346 2239 355 11 2 31 21 45 42 14 21 33 50 43 65 14 21 15 28 5 27
-7 -1 -579 -92 -1270 -202z"/>
<path d="M9139 28986 c-955 -303 -1735 -554 -1732 -559 7 -12 120 -67 137 -67
9 0 718 223 1577 495 1376 436 1566 499 1598 527 82 72 173 158 165 157 -5 -1
-790 -249 -1745 -553z"/>
<path d="M12302 29054 l-2253 -454 -79 -72 c-44 -40 -78 -74 -76 -75 3 -4
4888 976 4893 981 7 7 -182 76 -205 75 -15 0 -1041 -205 -2280 -455z"/>
<path d="M12514 28756 c-1780 -284 -2778 -447 -2790 -456 -11 -8 -47 -41 -82
-73 -56 -53 -60 -59 -35 -54 15 3 1354 216 2975 473 1622 258 2948 471 2948
474 0 11 -187 80 -215 79 -16 0 -1277 -200 -2801 -443z"/>
<path d="M26668 29163 c-39 -2 -68 -8 -68 -14 0 -6 12 -33 28 -61 l27 -50 44
6 c24 3 61 6 81 6 37 0 38 1 45 46 3 26 9 53 12 60 5 15 -6 15 -169 7z"/>
<path d="M17148 29042 c-384 -48 -698 -89 -698 -92 0 -3 46 -24 103 -47 l102
-42 569 69 c313 39 570 71 571 73 1 1 17 25 36 52 52 74 52 75 32 74 -10 -1
-332 -40 -715 -87z"/>
<path d="M21885 28798 l-4060 -310 -30 -33 c-16 -18 -39 -48 -49 -65 l-19 -33
49 6 c27 3 1899 146 4159 318 2261 172 4112 314 4114 315 2 2 -10 27 -26 56
-23 39 -36 53 -54 55 -13 0 -1851 -138 -4084 -309z"/>
<path d="M8945 28645 c-720 -183 -1312 -334 -1315 -335 -3 0 31 -19 74 -41
l79 -41 1159 294 1158 293 88 82 c48 45 83 82 77 82 -5 0 -599 -151 -1320
-334z"/>
<path d="M12795 28510 c-1743 -213 -3196 -390 -3227 -394 -54 -7 -62 -12 -130
-76 -67 -64 -71 -69 -43 -65 17 3 1564 192 3440 420 1876 229 3414 417 3419
418 5 2 -37 22 -93 45 -74 30 -114 42 -149 41 -26 -1 -1473 -175 -3217 -389z"/>
<path d="M6975 28530 c-16 -18 -16 -18 4 -13 25 6 35 19 22 27 -4 3 -16 -3
-26 -14z"/>
<path d="M8850 28361 c-509 -103 -931 -190 -938 -192 -7 -2 22 -23 66 -47 l79
-42 774 155 c426 85 783 157 795 160 26 6 184 154 164 153 -8 0 -431 -84 -940
-187z"/>
<path d="M6968 28477 c-65 -27 -92 -47 -185 -136 -59 -57 -103 -102 -97 -100
171 63 504 195 504 199 0 7 -127 70 -138 70 -4 -1 -41 -15 -84 -33z"/>
<path d="M13116 28128 l-3909 -299 -69 -61 c-37 -34 -67 -63 -65 -65 2 -1
1862 139 4133 312 2271 173 4140 315 4154 315 38 0 14 16 -89 60 -82 36 -99
40 -169 39 -42 -1 -1836 -136 -3986 -301z"/>
<path d="M17720 28014 c-4744 -194 -8642 -353 -8662 -353 -24 -1 -47 -10 -68
-27 -32 -28 -66 -82 -56 -91 6 -6 17528 706 17534 712 2 2 -10 29 -28 59 -28
50 -35 56 -63 55 -18 -1 -3913 -160 -8657 -355z"/>
<path d="M8830 28170 c-371 -60 -683 -109 -693 -110 -34 0 -6 -19 166 -108
l172 -89 336 41 336 42 72 63 c39 35 70 66 67 68 -2 2 -192 -19 -421 -47 -230
-28 -422 -49 -427 -48 -6 2 185 34 424 72 238 37 449 72 468 77 21 6 64 37
110 79 41 39 73 70 70 69 -3 0 -309 -50 -680 -109z m-427 -197 c-7 -2 -21 -2
-30 0 -10 3 -4 5 12 5 17 0 24 -2 18 -5z"/>
<path d="M8760 27796 l-135 -11 45 -26 c81 -48 149 -79 170 -79 12 0 51 28 90
65 l69 65 -52 -2 c-29 0 -113 -6 -187 -12z"/>
</g>
</svg>
